hintordertest_Mmm.ufo
<glyph name="uni001E" format="2">
  <advance width="1128"/>
  <unicode hex="001E"/>
  <outline>
    <contour>
      <point x="52" y="657" type="line"/>
      <point x="164" y="657" type="line"/>
      <point x="180" y="861" type="line"/>
      <point x="36" y="861" type="line"/>
    </contour>
    <contour>
      <point x="174" y="0" type="line"/>
      <point x="314" y="0" type="line"/>
      <point x="314" y="80" type="line"/>
      <point x="282" y="80" type="line"/>
      <point x="174" y="80" type="line"/>
    </contour>
    <contour>
      <point x="250" y="0" type="curve"/>
      <point x="466" y="0" type="line"/>
      <point x="466" y="95"/>
      <point x="466" y="189"/>
      <point x="466" y="284" type="curve" smooth="yes"/>
      <point x="466" y="368" type="line" smooth="yes"/>
      <point x="466" y="463"/>
      <point x="466" y="557"/>
      <point x="466" y="652" type="curve"/>
      <point x="250" y="652" type="line"/>
      <point x="250" y="557"/>
      <point x="250" y="463"/>
      <point x="250" y="368" type="curve" smooth="yes"/>
      <point x="250" y="284" type="line" smooth="yes"/>
      <point x="250" y="189"/>
      <point x="250" y="95"/>
    </contour>
    <contour>
      <point x="402" y="0" type="line"/>
      <point x="514" y="0" type="line" smooth="yes"/>
      <point x="766" y="0"/>
      <point x="910" y="116"/>
      <point x="910" y="332" type="curve" smooth="yes"/>
      <point x="910" y="548"/>
      <point x="766" y="652"/>
      <point x="522" y="652" type="curve" smooth="yes"/>
      <point x="402" y="652" type="line"/>
      <point x="402" y="576" type="line"/>
      <point x="506" y="576" type="line" smooth="yes"/>
      <point x="630" y="576"/>
      <point x="686" y="504"/>
      <point x="686" y="328" type="curve" smooth="yes"/>
      <point x="686" y="152"/>
      <point x="630" y="76"/>
      <point x="506" y="76" type="curve" smooth="yes"/>
      <point x="402" y="76" type="line"/>
    </contour>
    <contour>
      <point x="174" y="572" type="line"/>
      <point x="282" y="572" type="line"/>
      <point x="314" y="572" type="line"/>
      <point x="314" y="652" type="line"/>
      <point x="174" y="652" type="line"/>
    </contour>
  </outline>
</glyph>
<glyph name="uni001E" format="2">
  <advance width="1073"/>
  <unicode hex="001E"/>
  <outline>
    <contour>
      <point x="28" y="0" type="line"/>
      <point x="152" y="0" type="line"/>
      <point x="152" y="80" type="line"/>
      <point x="136" y="80" type="line"/>
      <point x="28" y="80" type="line"/>
    </contour>
    <contour>
      <point x="711" y="-195" type="curve" smooth="yes"/>
      <point x="761" y="-195"/>
      <point x="801" y="-155"/>
      <point x="801" y="-105" type="curve" smooth="yes"/>
      <point x="801" y="-55"/>
      <point x="761" y="-15"/>
      <point x="711" y="-15" type="curve" smooth="yes"/>
      <point x="661" y="-15"/>
      <point x="621" y="-55"/>
      <point x="621" y="-105" type="curve" smooth="yes"/>
      <point x="621" y="-155"/>
      <point x="661" y="-195"/>
    </contour>
    <contour>
      <point x="953" y="-195" type="curve" smooth="yes"/>
      <point x="1003" y="-195"/>
      <point x="1043" y="-155"/>
      <point x="1043" y="-105" type="curve" smooth="yes"/>
      <point x="1043" y="-55"/>
      <point x="1003" y="-15"/>
      <point x="953" y="-15" type="curve" smooth="yes"/>
      <point x="903" y="-15"/>
      <point x="863" y="-55"/>
      <point x="863" y="-105" type="curve" smooth="yes"/>
      <point x="863" y="-155"/>
      <point x="903" y="-195"/>
    </contour>
    <contour>
      <point x="104" y="0" type="curve"/>
      <point x="320" y="0" type="line"/>
      <point x="320" y="95"/>
      <point x="320" y="189"/>
      <point x="320" y="284" type="curve" smooth="yes"/>
      <point x="320" y="368" type="line" smooth="yes"/>
      <point x="320" y="463"/>
      <point x="320" y="557"/>
      <point x="320" y="652" type="curve"/>
      <point x="104" y="652" type="line"/>
      <point x="104" y="557"/>
      <point x="104" y="463"/>
      <point x="104" y="368" type="curve" smooth="yes"/>
      <point x="104" y="284" type="line" smooth="yes"/>
      <point x="104" y="189"/>
      <point x="104" y="95"/>
    </contour>
    <contour>
      <point x="240" y="0" type="line"/>
      <point x="608" y="0" type="line"/>
      <point x="616" y="180" type="line"/>
      <point x="532" y="180" type="line"/>
      <point x="492" y="28" type="line"/>
      <point x="532" y="76" type="line"/>
      <point x="240" y="76" type="line"/>
    </contour>
    <contour>
      <point x="208" y="292" type="line"/>
      <point x="448" y="292" type="line"/>
      <point x="448" y="372" type="line"/>
      <point x="208" y="372" type="line"/>
    </contour>
    <contour>
      <point x="420" y="228" type="line"/>
      <point x="500" y="228" type="line"/>
      <point x="500" y="436" type="line"/>
      <point x="420" y="436" type="line"/>
      <point x="406" y="348" type="line"/>
      <point x="406" y="316" type="line"/>
    </contour>
    <contour>
      <point x="28" y="572" type="line"/>
      <point x="136" y="572" type="line"/>
      <point x="152" y="572" type="line"/>
      <point x="152" y="652" type="line"/>
      <point x="28" y="652" type="line"/>
    </contour>
    <contour>
      <point x="512" y="480" type="line"/>
      <point x="596" y="480" type="line"/>
      <point x="588" y="652" type="line"/>
      <point x="240" y="652" type="line"/>
      <point x="240" y="576" type="line"/>
      <point x="520" y="576" type="line"/>
      <point x="472" y="624" type="line"/>
    </contour>
  </outline>
</glyph>
<glyph name="uni001E" format="2">
  <advance width="1015"/>
  <unicode hex="001E"/>
  <outline>
    <contour>
      <point x="230" y="0" type="line"/>
      <point x="614" y="0" type="line"/>
      <point x="614" y="80" type="line"/>
      <point x="490" y="80" type="line"/>
      <point x="338" y="80" type="line"/>
      <point x="230" y="80" type="line"/>
    </contour>
    <contour>
      <point x="306" y="0" type="curve"/>
      <point x="522" y="0" type="line"/>
      <point x="522" y="95"/>
      <point x="522" y="189"/>
      <point x="522" y="284" type="curve" smooth="yes"/>
      <point x="522" y="368" type="line" smooth="yes"/>
      <point x="522" y="463"/>
      <point x="522" y="557"/>
      <point x="522" y="652" type="curve"/>
      <point x="306" y="652" type="line"/>
      <point x="306" y="557"/>
      <point x="306" y="463"/>
      <point x="306" y="368" type="curve" smooth="yes"/>
      <point x="306" y="284" type="line" smooth="yes"/>
      <point x="306" y="189"/>
      <point x="306" y="95"/>
    </contour>
    <contour>
      <point x="410" y="288" type="line"/>
      <point x="650" y="288" type="line"/>
      <point x="650" y="368" type="line"/>
      <point x="410" y="368" type="line"/>
    </contour>
    <contour>
      <point x="100" y="692" type="curve" smooth="yes"/>
      <point x="159" y="692"/>
      <point x="199" y="731"/>
      <point x="199" y="786" type="curve" smooth="yes"/>
      <point x="199" y="841"/>
      <point x="159" y="880"/>
      <point x="100" y="880" type="curve" smooth="yes"/>
      <point x="41" y="880"/>
      <point x="0" y="841"/>
      <point x="0" y="786" type="curve" smooth="yes"/>
      <point x="0" y="731"/>
      <point x="41" y="692"/>
    </contour>
    <contour>
      <point x="622" y="224" type="line"/>
      <point x="702" y="224" type="line"/>
      <point x="702" y="432" type="line"/>
      <point x="622" y="432" type="line"/>
      <point x="608" y="344" type="line"/>
      <point x="608" y="312" type="line"/>
    </contour>
    <contour>
      <point x="230" y="572" type="line"/>
      <point x="338" y="572" type="line"/>
      <point x="354" y="572" type="line"/>
      <point x="354" y="652" type="line"/>
      <point x="230" y="652" type="line"/>
    </contour>
    <contour>
      <point x="714" y="480" type="line"/>
      <point x="798" y="480" type="line"/>
      <point x="790" y="652" type="line"/>
      <point x="442" y="652" type="line"/>
      <point x="442" y="576" type="line"/>
      <point x="722" y="576" type="line"/>
      <point x="674" y="624" type="line"/>
    </contour>
  </outline>
</glyph>
<glyph name="uni001E" format="2">
  <advance width="1350"/>
  <unicode hex="001E"/>
  <outline>
    <contour>
      <point x="294" y="0" type="line"/>
      <point x="654" y="0" type="line"/>
      <point x="654" y="80" type="line"/>
      <point x="538" y="80" type="line"/>
      <point x="418" y="80" type="line"/>
      <point x="294" y="80" type="line"/>
    </contour>
    <contour>
      <point x="370" y="0" type="curve"/>
      <point x="586" y="0" type="line"/>
      <point x="586" y="101"/>
      <point x="586" y="203"/>
      <point x="586" y="304" type="curve" smooth="yes"/>
      <point x="586" y="348" type="line" smooth="yes"/>
      <point x="586" y="449"/>
      <point x="586" y="551"/>
      <point x="586" y="652" type="curve"/>
      <point x="370" y="652" type="line"/>
      <point x="370" y="557"/>
      <point x="370" y="463"/>
      <point x="370" y="368" type="curve" smooth="yes"/>
      <point x="370" y="284" type="line" smooth="yes"/>
      <point x="370" y="189"/>
      <point x="370" y="95"/>
    </contour>
    <contour>
      <point x="490" y="288" type="line"/>
      <point x="882" y="288" type="line"/>
      <point x="882" y="368" type="line"/>
      <point x="490" y="368" type="line"/>
    </contour>
    <contour>
      <point x="132" y="781" type="curve" smooth="yes"/>
      <point x="98" y="781"/>
      <point x="72" y="805"/>
      <point x="72" y="839" type="curve" smooth="yes"/>
      <point x="72" y="873"/>
      <point x="98" y="897"/>
      <point x="132" y="897" type="curve" smooth="yes"/>
      <point x="166" y="897"/>
      <point x="192" y="873"/>
      <point x="192" y="839" type="curve" smooth="yes"/>
      <point x="192" y="805"/>
      <point x="166" y="781"/>
    </contour>
    <contour>
      <point x="132" y="717" type="curve" smooth="yes"/>
      <point x="208" y="717"/>
      <point x="264" y="769"/>
      <point x="264" y="839" type="curve" smooth="yes"/>
      <point x="264" y="909"/>
      <point x="208" y="961"/>
      <point x="132" y="961" type="curve" smooth="yes"/>
      <point x="56" y="961"/>
      <point x="0" y="909"/>
      <point x="0" y="839" type="curve" smooth="yes"/>
      <point x="0" y="769"/>
      <point x="56" y="717"/>
    </contour>
    <contour>
      <point x="718" y="0" type="line"/>
      <point x="1078" y="0" type="line"/>
      <point x="1078" y="80" type="line"/>
      <point x="954" y="80" type="line"/>
      <point x="834" y="80" type="line"/>
      <point x="718" y="80" type="line"/>
    </contour>
    <contour>
      <point x="786" y="0" type="curve"/>
      <point x="1002" y="0" type="line"/>
      <point x="1002" y="95"/>
      <point x="1002" y="189"/>
      <point x="1002" y="284" type="curve" smooth="yes"/>
      <point x="1002" y="368" type="line" smooth="yes"/>
      <point x="1002" y="463"/>
      <point x="1002" y="557"/>
      <point x="1002" y="652" type="curve"/>
      <point x="786" y="652" type="line"/>
      <point x="786" y="551"/>
      <point x="786" y="449"/>
      <point x="786" y="348" type="curve" smooth="yes"/>
      <point x="786" y="304" type="line" smooth="yes"/>
      <point x="786" y="203"/>
      <point x="786" y="101"/>
    </contour>
    <contour>
      <point x="294" y="572" type="line"/>
      <point x="418" y="572" type="line"/>
      <point x="538" y="572" type="line"/>
      <point x="654" y="572" type="line"/>
      <point x="654" y="652" type="line"/>
      <point x="294" y="652" type="line"/>
    </contour>
    <contour>
      <point x="718" y="572" type="line"/>
      <point x="834" y="572" type="line"/>
      <point x="954" y="572" type="line"/>
      <point x="1078" y="572" type="line"/>
      <point x="1078" y="652" type="line"/>
      <point x="718" y="652" type="line"/>
    </contour>
  </outline>
</glyph>
<glyph name="uni001E" format="2">
  <advance width="1335"/>
  <unicode hex="001E"/>
  <outline>
    <contour>
      <point x="90" y="684" type="curve" smooth="yes"/>
      <point x="140" y="684"/>
      <point x="180" y="724"/>
      <point x="180" y="774" type="curve" smooth="yes"/>
      <point x="180" y="824"/>
      <point x="140" y="864"/>
      <point x="90" y="864" type="curve" smooth="yes"/>
      <point x="40" y="864"/>
      <point x="0" y="824"/>
      <point x="0" y="774" type="curve" smooth="yes"/>
      <point x="0" y="724"/>
      <point x="40" y="684"/>
    </contour>
    <contour>
      <point x="332" y="684" type="curve" smooth="yes"/>
      <point x="382" y="684"/>
      <point x="422" y="724"/>
      <point x="422" y="774" type="curve" smooth="yes"/>
      <point x="422" y="824"/>
      <point x="382" y="864"/>
      <point x="332" y="864" type="curve" smooth="yes"/>
      <point x="282" y="864"/>
      <point x="242" y="824"/>
      <point x="242" y="774" type="curve" smooth="yes"/>
      <point x="242" y="724"/>
      <point x="282" y="684"/>
    </contour>
    <contour>
      <point x="575" y="-154" type="curve" smooth="yes"/>
      <point x="671" y="-154"/>
      <point x="733" y="-121"/>
      <point x="779" y="-66" type="curve" smooth="yes"/>
      <point x="820" y="-17"/>
      <point x="859" y="30"/>
      <point x="859" y="206" type="curve" smooth="yes"/>
      <point x="859" y="366" type="line" smooth="yes"/>
      <point x="859" y="465"/>
      <point x="859" y="553"/>
      <point x="859" y="652" type="curve"/>
      <point x="643" y="652" type="line"/>
      <point x="643" y="477"/>
      <point x="643" y="325"/>
      <point x="643" y="152" type="curve" smooth="yes"/>
      <point x="643" y="14"/>
      <point x="654" y="-35"/>
      <point x="658" y="-108" type="curve"/>
      <point x="673" y="-98" type="line"/>
      <point x="611" y="-98" type="line"/>
      <point x="645" y="-114" type="line"/>
      <point x="624" y="-78" type="line" smooth="yes"/>
      <point x="593" y="-26"/>
      <point x="572" y="-13"/>
      <point x="527" y="-13" type="curve" smooth="yes"/>
      <point x="485" y="-13"/>
      <point x="457" y="-42"/>
      <point x="452" y="-83" type="curve"/>
      <point x="458" y="-130"/>
      <point x="510" y="-154"/>
    </contour>
    <contour>
      <point x="559" y="572" type="line"/>
      <point x="691" y="572" type="line"/>
      <point x="811" y="572" type="line"/>
      <point x="935" y="572" type="line"/>
      <point x="935" y="652" type="line"/>
      <point x="559" y="652" type="line"/>
    </contour>
  </outline>
</glyph>
<glyph name="uni001E" format="2">
  <advance width="1258"/>
  <unicode hex="001E"/>
  <outline>
    <contour>
      <point x="330" y="0" type="line"/>
      <point x="454" y="0" type="line"/>
      <point x="454" y="80" type="line"/>
      <point x="438" y="80" type="line"/>
      <point x="330" y="80" type="line"/>
    </contour>
    <contour>
      <point x="406" y="0" type="curve"/>
      <point x="622" y="0" type="line"/>
      <point x="622" y="95"/>
      <point x="622" y="189"/>
      <point x="622" y="284" type="curve" smooth="yes"/>
      <point x="622" y="368" type="line" smooth="yes"/>
      <point x="622" y="463"/>
      <point x="622" y="557"/>
      <point x="622" y="652" type="curve"/>
      <point x="406" y="652" type="line"/>
      <point x="406" y="557"/>
      <point x="406" y="463"/>
      <point x="406" y="368" type="curve" smooth="yes"/>
      <point x="406" y="284" type="line" smooth="yes"/>
      <point x="406" y="189"/>
      <point x="406" y="95"/>
    </contour>
    <contour>
      <point x="0" y="718" type="line"/>
      <point x="300" y="718" type="line"/>
      <point x="300" y="820" type="line"/>
      <point x="0" y="820" type="line"/>
    </contour>
    <contour>
      <point x="542" y="0" type="line"/>
      <point x="906" y="0" type="line"/>
      <point x="914" y="216" type="line"/>
      <point x="830" y="216" type="line"/>
      <point x="790" y="28" type="line"/>
      <point x="830" y="76" type="line"/>
      <point x="542" y="76" type="line"/>
    </contour>
    <contour>
      <point x="330" y="572" type="line"/>
      <point x="438" y="572" type="line"/>
      <point x="590" y="572" type="line"/>
      <point x="714" y="572" type="line"/>
      <point x="714" y="652" type="line"/>
      <point x="330" y="652" type="line"/>
    </contour>
  </outline>
</glyph>
<glyph name="uni001E" format="2">
  <advance width="1213"/>
  <unicode hex="001E"/>
  <outline>
    <contour>
      <point x="851" y="-211" type="curve" smooth="yes"/>
      <point x="901" y="-211"/>
      <point x="941" y="-171"/>
      <point x="941" y="-121" type="curve" smooth="yes"/>
      <point x="941" y="-71"/>
      <point x="901" y="-31"/>
      <point x="851" y="-31" type="curve" smooth="yes"/>
      <point x="801" y="-31"/>
      <point x="761" y="-71"/>
      <point x="761" y="-121" type="curve" smooth="yes"/>
      <point x="761" y="-171"/>
      <point x="801" y="-211"/>
    </contour>
    <contour>
      <point x="1093" y="-211" type="curve" smooth="yes"/>
      <point x="1143" y="-211"/>
      <point x="1183" y="-171"/>
      <point x="1183" y="-121" type="curve" smooth="yes"/>
      <point x="1183" y="-71"/>
      <point x="1143" y="-31"/>
      <point x="1093" y="-31" type="curve" smooth="yes"/>
      <point x="1043" y="-31"/>
      <point x="1003" y="-71"/>
      <point x="1003" y="-121" type="curve" smooth="yes"/>
      <point x="1003" y="-171"/>
      <point x="1043" y="-211"/>
    </contour>
    <contour>
      <point x="400" y="-16" type="curve" smooth="yes"/>
      <point x="580" y="-16"/>
      <point x="756" y="92"/>
      <point x="756" y="328" type="curve" smooth="yes"/>
      <point x="756" y="564"/>
      <point x="580" y="668"/>
      <point x="400" y="668" type="curve" smooth="yes"/>
      <point x="220" y="668"/>
      <point x="44" y="560"/>
      <point x="44" y="324" type="curve" smooth="yes"/>
      <point x="44" y="88"/>
      <point x="220" y="-16"/>
    </contour>
    <contour>
      <point x="400" y="64" type="curve" smooth="yes"/>
      <point x="308" y="64"/>
      <point x="268" y="168"/>
      <point x="268" y="328" type="curve" smooth="yes"/>
      <point x="268" y="488"/>
      <point x="308" y="588"/>
      <point x="400" y="588" type="curve" smooth="yes"/>
      <point x="492" y="588"/>
      <point x="532" y="484"/>
      <point x="532" y="324" type="curve" smooth="yes"/>
      <point x="532" y="164"/>
      <point x="492" y="64"/>
    </contour>
  </outline>
</glyph>
<glyph name="uni001E" format="2">
  <advance width="1119"/>
  <unicode hex="001E"/>
  <outline>
    <contour>
      <point x="127" y="795" type="curve" smooth="yes"/>
      <point x="93" y="795"/>
      <point x="67" y="819"/>
      <point x="67" y="853" type="curve" smooth="yes"/>
      <point x="67" y="887"/>
      <point x="93" y="911"/>
      <point x="127" y="911" type="curve" smooth="yes"/>
      <point x="161" y="911"/>
      <point x="187" y="887"/>
      <point x="187" y="853" type="curve" smooth="yes"/>
      <point x="187" y="819"/>
      <point x="161" y="795"/>
    </contour>
    <contour>
      <point x="127" y="731" type="curve" smooth="yes"/>
      <point x="203" y="731"/>
      <point x="259" y="783"/>
      <point x="259" y="853" type="curve" smooth="yes"/>
      <point x="259" y="923"/>
      <point x="203" y="975"/>
      <point x="127" y="975" type="curve" smooth="yes"/>
      <point x="51" y="975"/>
      <point x="-5" y="923"/>
      <point x="-5" y="853" type="curve" smooth="yes"/>
      <point x="-5" y="783"/>
      <point x="51" y="731"/>
    </contour>
    <contour>
      <point x="540" y="-16" type="curve" smooth="yes"/>
      <point x="720" y="-16"/>
      <point x="848" y="60"/>
      <point x="848" y="200" type="curve" smooth="yes"/>
      <point x="848" y="324"/>
      <point x="756" y="376"/>
      <point x="624" y="426" type="curve" smooth="yes"/>
      <point x="608" y="432" type="line" smooth="yes"/>
      <point x="528" y="462"/>
      <point x="500" y="484"/>
      <point x="500" y="526" type="curve" smooth="yes"/>
      <point x="500" y="568"/>
      <point x="532" y="596"/>
      <point x="600" y="596" type="curve" smooth="yes"/>
      <point x="668" y="596"/>
      <point x="708" y="580"/>
      <point x="748" y="560" type="curve"/>
      <point x="748" y="616" type="line"/>
      <point x="678" y="616" type="line"/>
      <point x="712" y="472" type="line"/>
      <point x="796" y="472" type="line"/>
      <point x="796" y="632" type="line"/>
      <point x="756" y="648"/>
      <point x="684" y="668"/>
      <point x="584" y="668" type="curve" smooth="yes"/>
      <point x="436" y="668"/>
      <point x="308" y="600"/>
      <point x="308" y="462" type="curve" smooth="yes"/>
      <point x="308" y="340"/>
      <point x="400" y="288"/>
      <point x="532" y="238" type="curve" smooth="yes"/>
      <point x="548" y="232" type="line" smooth="yes"/>
      <point x="628" y="202"/>
      <point x="656" y="184"/>
      <point x="656" y="138" type="curve" smooth="yes"/>
      <point x="656" y="92"/>
      <point x="624" y="60"/>
      <point x="532" y="60" type="curve" smooth="yes"/>
      <point x="460" y="60"/>
      <point x="404" y="76"/>
      <point x="364" y="100" type="curve"/>
      <point x="364" y="40" type="line"/>
      <point x="430" y="40" type="line"/>
      <point x="396" y="192" type="line"/>
      <point x="308" y="192" type="line"/>
      <point x="308" y="24" type="line"/>
      <point x="364" y="0"/>
      <point x="452" y="-16"/>
    </contour>
  </outline>
</glyph>
<glyph name="uni001E" format="2">
  <advance width="1576"/>
  <unicode hex="001E"/>
  <outline>
    <contour>
      <point x="815" y="-16" type="curve" smooth="yes"/>
      <point x="1007" y="-16"/>
      <point x="1103" y="76"/>
      <point x="1103" y="248" type="curve" smooth="yes"/>
      <point x="1103" y="652" type="line"/>
      <point x="1019" y="652" type="line"/>
      <point x="1019" y="252" type="line" smooth="yes"/>
      <point x="1019" y="124"/>
      <point x="967" y="72"/>
      <point x="879" y="72" type="curve" smooth="yes"/>
      <point x="791" y="72"/>
      <point x="739" y="124"/>
      <point x="739" y="252" type="curve" smooth="yes"/>
      <point x="739" y="368" type="line" smooth="yes"/>
      <point x="739" y="463"/>
      <point x="739" y="557"/>
      <point x="739" y="652" type="curve"/>
      <point x="523" y="652" type="line"/>
      <point x="523" y="557"/>
      <point x="523" y="463"/>
      <point x="523" y="368" type="curve" smooth="yes"/>
      <point x="523" y="248" type="line" smooth="yes"/>
      <point x="523" y="60"/>
      <point x="639" y="-16"/>
    </contour>
    <contour>
      <point x="452" y="572" type="line"/>
      <point x="571" y="572" type="line"/>
      <point x="691" y="572" type="line"/>
      <point x="823" y="572" type="line"/>
      <point x="823" y="652" type="line"/>
      <point x="452" y="652" type="line"/>
    </contour>
    <contour>
      <point x="90" y="684" type="curve" smooth="yes"/>
      <point x="140" y="684"/>
      <point x="180" y="724"/>
      <point x="180" y="774" type="curve" smooth="yes"/>
      <point x="180" y="824"/>
      <point x="140" y="864"/>
      <point x="90" y="864" type="curve" smooth="yes"/>
      <point x="40" y="864"/>
      <point x="0" y="824"/>
      <point x="0" y="774" type="curve" smooth="yes"/>
      <point x="0" y="724"/>
      <point x="40" y="684"/>
    </contour>
    <contour>
      <point x="332" y="684" type="curve" smooth="yes"/>
      <point x="382" y="684"/>
      <point x="422" y="724"/>
      <point x="422" y="774" type="curve" smooth="yes"/>
      <point x="422" y="824"/>
      <point x="382" y="864"/>
      <point x="332" y="864" type="curve" smooth="yes"/>
      <point x="282" y="864"/>
      <point x="242" y="824"/>
      <point x="242" y="774" type="curve" smooth="yes"/>
      <point x="242" y="724"/>
      <point x="282" y="684"/>
    </contour>
    <contour>
      <point x="935" y="572" type="line"/>
      <point x="1051" y="572" type="line"/>
      <point x="1071" y="572" type="line"/>
      <point x="1179" y="572" type="line"/>
      <point x="1179" y="652" type="line"/>
      <point x="935" y="652" type="line"/>
    </contour>
  </outline>
</glyph>
<glyph name="uni001E" format="2">
  <advance width="966"/>
  <unicode hex="001E"/>
  <outline>
    <contour>
      <point x="837" y="-203" type="curve" smooth="yes"/>
      <point x="896" y="-203"/>
      <point x="936" y="-164"/>
      <point x="936" y="-109" type="curve" smooth="yes"/>
      <point x="936" y="-54"/>
      <point x="896" y="-15"/>
      <point x="837" y="-15" type="curve" smooth="yes"/>
      <point x="778" y="-15"/>
      <point x="737" y="-54"/>
      <point x="737" y="-109" type="curve" smooth="yes"/>
      <point x="737" y="-164"/>
      <point x="778" y="-203"/>
    </contour>
    <contour>
      <point x="294" y="0" type="line"/>
      <point x="472" y="0" type="line"/>
      <point x="696" y="652" type="line"/>
      <point x="604" y="652" type="line"/>
      <point x="524" y="393" type="line"/>
      <point x="459" y="99" type="line"/>
      <point x="444" y="99" type="line"/>
      <point x="274" y="652" type="line"/>
      <point x="48" y="652" type="line"/>
    </contour>
    <contour>
      <point x="17" y="572" type="line"/>
      <point x="124" y="572" type="line"/>
      <point x="248" y="572" type="line"/>
      <point x="380" y="572" type="line"/>
      <point x="380" y="652" type="line"/>
      <point x="17" y="652" type="line"/>
    </contour>
    <contour>
      <point x="500" y="572" type="line"/>
      <point x="596" y="572" type="line"/>
      <point x="640" y="572" type="line"/>
      <point x="732" y="572" type="line"/>
      <point x="732" y="652" type="line"/>
      <point x="500" y="652" type="line"/>
    </contour>
  </outline>
</glyph>
<glyph name="uni001E" format="2">
  <advance width="1756"/>
  <unicode hex="001E"/>
  <outline>
    <contour>
      <point x="549" y="0" type="line"/>
      <point x="736" y="0" type="line"/>
      <point x="821" y="288" type="line"/>
      <point x="861" y="502" type="line"/>
      <point x="877" y="502" type="line"/>
      <point x="982" y="0" type="line"/>
      <point x="1169" y="0" type="line"/>
      <point x="1375" y="652" type="line"/>
      <point x="1283" y="652" type="line"/>
      <point x="1214" y="378" type="line"/>
      <point x="1156" y="100" type="line"/>
      <point x="1141" y="100" type="line"/>
      <point x="1015" y="652" type="line"/>
      <point x="862" y="652" type="line"/>
      <point x="761" y="323" type="line"/>
      <point x="717" y="97" type="line"/>
      <point x="702" y="97" type="line"/>
      <point x="594" y="652" type="line"/>
      <point x="361" y="652" type="line"/>
    </contour>
    <contour>
      <point x="-2" y="718" type="line"/>
      <point x="298" y="718" type="line"/>
      <point x="298" y="820" type="line"/>
      <point x="-2" y="820" type="line"/>
    </contour>
    <contour>
      <point x="330" y="572" type="line"/>
      <point x="421" y="572" type="line"/>
      <point x="580" y="572" type="line"/>
      <point x="686" y="572" type="line"/>
      <point x="686" y="652" type="line"/>
      <point x="330" y="652" type="line"/>
    </contour>
    <contour>
      <point x="766" y="572" type="line"/>
      <point x="878" y="572" type="line"/>
      <point x="1027" y="572" type="line"/>
      <point x="1115" y="572" type="line"/>
      <point x="1115" y="652" type="line"/>
      <point x="766" y="652" type="line"/>
    </contour>
    <contour>
      <point x="1187" y="572" type="line"/>
      <point x="1295" y="572" type="line"/>
      <point x="1319" y="572" type="line"/>
      <point x="1411" y="572" type="line"/>
      <point x="1411" y="652" type="line"/>
      <point x="1187" y="652" type="line"/>
    </contour>
  </outline>
</glyph>
<glyph name="uni001E" format="2">
  <advance width="1011"/>
  <unicode hex="001E"/>
  <outline>
    <contour>
      <point x="12" y="0" type="line"/>
      <point x="252" y="0" type="line"/>
      <point x="252" y="80" type="line"/>
      <point x="156" y="80" type="line"/>
      <point x="132" y="80" type="line"/>
      <point x="12" y="80" type="line"/>
    </contour>
    <contour>
      <point x="849" y="-168" type="curve" smooth="yes"/>
      <point x="815" y="-168"/>
      <point x="789" y="-144"/>
      <point x="789" y="-110" type="curve" smooth="yes"/>
      <point x="789" y="-76"/>
      <point x="815" y="-52"/>
      <point x="849" y="-52" type="curve" smooth="yes"/>
      <point x="883" y="-52"/>
      <point x="909" y="-76"/>
      <point x="909" y="-110" type="curve" smooth="yes"/>
      <point x="909" y="-144"/>
      <point x="883" y="-168"/>
    </contour>
    <contour>
      <point x="849" y="-232" type="curve" smooth="yes"/>
      <point x="925" y="-232"/>
      <point x="981" y="-180"/>
      <point x="981" y="-110" type="curve" smooth="yes"/>
      <point x="981" y="-40"/>
      <point x="925" y="12"/>
      <point x="849" y="12" type="curve" smooth="yes"/>
      <point x="773" y="12"/>
      <point x="717" y="-40"/>
      <point x="717" y="-110" type="curve" smooth="yes"/>
      <point x="717" y="-180"/>
      <point x="773" y="-232"/>
    </contour>
    <contour>
      <point x="24" y="0" type="line"/>
      <point x="124" y="0" type="line"/>
      <point x="223" y="163" type="line"/>
      <point x="265" y="279" type="line"/>
      <point x="333" y="279" type="line"/>
      <point x="268" y="348" type="line"/>
    </contour>
    <contour>
      <point x="340" y="0" type="line"/>
      <point x="712" y="0" type="line"/>
      <point x="712" y="80" type="line"/>
      <point x="588" y="80" type="line"/>
      <point x="456" y="80" type="line"/>
      <point x="340" y="80" type="line"/>
    </contour>
    <contour>
      <point x="424" y="304" type="line"/>
      <point x="668" y="652" type="line"/>
      <point x="569" y="652" type="line"/>
      <point x="484" y="511" type="line"/>
      <point x="444" y="397" type="line"/>
      <point x="365" y="397" type="line"/>
    </contour>
    <contour>
      <point x="464" y="0" type="line"/>
      <point x="696" y="0" type="line"/>
      <point x="260" y="652" type="line"/>
      <point x="28" y="652" type="line"/>
    </contour>
    <contour>
      <point x="12" y="572" type="line"/>
      <point x="128" y="572" type="line"/>
      <point x="264" y="572" type="line"/>
      <point x="380" y="572" type="line"/>
      <point x="380" y="652" type="line"/>
      <point x="12" y="652" type="line"/>
    </contour>
    <contour>
      <point x="444" y="572" type="line"/>
      <point x="536" y="572" type="line"/>
      <point x="568" y="572" type="line"/>
      <point x="680" y="572" type="line"/>
      <point x="680" y="652" type="line"/>
      <point x="444" y="652" type="line"/>
    </contour>
  </outline>
</glyph>
<glyph name="uni001E" format="2">
  <advance width="1079"/>
  <unicode hex="001E"/>
  <outline>
    <contour>
      <point x="127" y="601" type="curve" smooth="yes"/>
      <point x="93" y="601"/>
      <point x="67" y="625"/>
      <point x="67" y="659" type="curve" smooth="yes"/>
      <point x="67" y="693"/>
      <point x="93" y="717"/>
      <point x="127" y="717" type="curve" smooth="yes"/>
      <point x="161" y="717"/>
      <point x="187" y="693"/>
      <point x="187" y="659" type="curve" smooth="yes"/>
      <point x="187" y="625"/>
      <point x="161" y="601"/>
    </contour>
    <contour>
      <point x="127" y="537" type="curve" smooth="yes"/>
      <point x="203" y="537"/>
      <point x="259" y="589"/>
      <point x="259" y="659" type="curve" smooth="yes"/>
      <point x="259" y="729"/>
      <point x="203" y="781"/>
      <point x="127" y="781" type="curve" smooth="yes"/>
      <point x="51" y="781"/>
      <point x="-5" y="729"/>
      <point x="-5" y="659" type="curve" smooth="yes"/>
      <point x="-5" y="589"/>
      <point x="51" y="537"/>
    </contour>
    <contour>
      <point x="574" y="-16" type="curve" smooth="yes"/>
      <point x="710" y="-16"/>
      <point x="775" y="54"/>
      <point x="807" y="101" type="curve"/>
      <point x="752" y="146" type="line"/>
      <point x="726" y="120"/>
      <point x="694" y="96"/>
      <point x="642" y="96" type="curve" smooth="yes"/>
      <point x="562" y="96"/>
      <point x="508" y="156"/>
      <point x="508" y="274" type="curve" smooth="yes"/>
      <point x="508" y="401"/>
      <point x="554" y="468"/>
      <point x="630" y="468" type="curve" smooth="yes"/>
      <point x="670" y="468"/>
      <point x="694" y="460"/>
      <point x="718" y="452" type="curve"/>
      <point x="638" y="500" type="line"/>
      <point x="638" y="420" type="line" smooth="yes"/>
      <point x="638" y="365"/>
      <point x="674" y="328"/>
      <point x="726" y="328" type="curve" smooth="yes"/>
      <point x="774" y="328"/>
      <point x="803" y="361"/>
      <point x="806" y="415" type="curve"/>
      <point x="778" y="476"/>
      <point x="710" y="532"/>
      <point x="582" y="532" type="curve" smooth="yes"/>
      <point x="418" y="532"/>
      <point x="298" y="416"/>
      <point x="298" y="248" type="curve" smooth="yes"/>
      <point x="298" y="84"/>
      <point x="410" y="-16"/>
    </contour>
  </outline>
</glyph>
<glyph name="uni001E" format="2">
  <advance width="1373"/>
  <unicode hex="001E"/>
  <outline>
    <contour>
      <point x="87" y="537" type="curve" smooth="yes"/>
      <point x="137" y="537"/>
      <point x="177" y="577"/>
      <point x="177" y="627" type="curve" smooth="yes"/>
      <point x="177" y="677"/>
      <point x="137" y="717"/>
      <point x="87" y="717" type="curve" smooth="yes"/>
      <point x="37" y="717"/>
      <point x="-3" y="677"/>
      <point x="-3" y="627" type="curve" smooth="yes"/>
      <point x="-3" y="577"/>
      <point x="37" y="537"/>
    </contour>
    <contour>
      <point x="329" y="537" type="curve" smooth="yes"/>
      <point x="379" y="537"/>
      <point x="419" y="577"/>
      <point x="419" y="627" type="curve" smooth="yes"/>
      <point x="419" y="677"/>
      <point x="379" y="717"/>
      <point x="329" y="717" type="curve" smooth="yes"/>
      <point x="279" y="717"/>
      <point x="239" y="677"/>
      <point x="239" y="627" type="curve" smooth="yes"/>
      <point x="239" y="577"/>
      <point x="279" y="537"/>
    </contour>
    <contour>
      <point x="742" y="-16" type="curve" smooth="yes"/>
      <point x="861" y="-16"/>
      <point x="931" y="38"/>
      <point x="973" y="106" type="curve"/>
      <point x="920" y="146" type="line"/>
      <point x="890" y="112"/>
      <point x="856" y="96"/>
      <point x="802" y="96" type="curve" smooth="yes"/>
      <point x="717" y="96"/>
      <point x="656" y="155"/>
      <point x="656" y="285" type="curve" smooth="yes"/>
      <point x="656" y="422"/>
      <point x="676" y="465"/>
      <point x="732" y="465" type="curve" smooth="yes"/>
      <point x="770" y="465"/>
      <point x="792" y="422"/>
      <point x="792" y="371" type="curve" smooth="yes"/>
      <point x="792" y="340"/>
      <point x="791" y="327"/>
      <point x="789" y="296" type="curve"/>
      <point x="624" y="296" type="line"/>
      <point x="624" y="240" type="line"/>
      <point x="961" y="240" type="line"/>
      <point x="966" y="264"/>
      <point x="968" y="280"/>
      <point x="968" y="312" type="curve" smooth="yes"/>
      <point x="968" y="449"/>
      <point x="873" y="532"/>
      <point x="733" y="532" type="curve" smooth="yes"/>
      <point x="572" y="532"/>
      <point x="452" y="428"/>
      <point x="452" y="256" type="curve" smooth="yes"/>
      <point x="452" y="84"/>
      <point x="568" y="-16"/>
    </contour>
  </outline>
</glyph>
<glyph name="uni001E" format="2">
  <advance width="991"/>
  <unicode hex="001E"/>
  <outline>
    <contour>
      <point x="24" y="0" type="line"/>
      <point x="332" y="0" type="line"/>
      <point x="332" y="76" type="line"/>
      <point x="240" y="76" type="line"/>
      <point x="132" y="76" type="line"/>
      <point x="24" y="76" type="line"/>
    </contour>
    <contour>
      <point x="84" y="0" type="curve"/>
      <point x="288" y="0" type="line"/>
      <point x="288" y="73"/>
      <point x="288" y="147"/>
      <point x="288" y="220" type="curve" smooth="yes"/>
      <point x="288" y="397" type="line"/>
      <point x="286" y="397" type="line"/>
      <point x="288" y="566" type="line"/>
      <point x="288" y="710" type="line"/>
      <point x="224" y="710" type="line"/>
      <point x="20" y="674" type="line"/>
      <point x="20" y="614" type="line"/>
      <point x="84" y="594" type="line"/>
      <point x="84" y="220" type="line" smooth="yes"/>
      <point x="84" y="147"/>
      <point x="84" y="73"/>
    </contour>
    <contour>
      <point x="829" y="-168" type="curve" smooth="yes"/>
      <point x="795" y="-168"/>
      <point x="769" y="-144"/>
      <point x="769" y="-110" type="curve" smooth="yes"/>
      <point x="769" y="-76"/>
      <point x="795" y="-52"/>
      <point x="829" y="-52" type="curve" smooth="yes"/>
      <point x="863" y="-52"/>
      <point x="889" y="-76"/>
      <point x="889" y="-110" type="curve" smooth="yes"/>
      <point x="889" y="-144"/>
      <point x="863" y="-168"/>
    </contour>
    <contour>
      <point x="829" y="-232" type="curve" smooth="yes"/>
      <point x="905" y="-232"/>
      <point x="961" y="-180"/>
      <point x="961" y="-110" type="curve" smooth="yes"/>
      <point x="961" y="-40"/>
      <point x="905" y="12"/>
      <point x="829" y="12" type="curve" smooth="yes"/>
      <point x="753" y="12"/>
      <point x="697" y="-40"/>
      <point x="697" y="-110" type="curve" smooth="yes"/>
      <point x="697" y="-180"/>
      <point x="753" y="-232"/>
    </contour>
    <contour>
      <point x="384" y="0" type="line"/>
      <point x="692" y="0" type="line"/>
      <point x="692" y="76" type="line"/>
      <point x="584" y="76" type="line"/>
      <point x="476" y="76" type="line"/>
      <point x="384" y="76" type="line"/>
    </contour>
    <contour>
      <point x="428" y="0" type="curve"/>
      <point x="632" y="0" type="line"/>
      <point x="632" y="74"/>
      <point x="632" y="147"/>
      <point x="632" y="221" type="curve" smooth="yes"/>
      <point x="632" y="352" type="line" smooth="yes"/>
      <point x="632" y="468"/>
      <point x="576" y="532"/>
      <point x="476" y="532" type="curve" smooth="yes"/>
      <point x="384" y="532"/>
      <point x="344" y="468"/>
      <point x="320" y="420" type="curve"/>
      <point x="256" y="420" type="line"/>
      <point x="256" y="348" type="line"/>
      <point x="296" y="376"/>
      <point x="328" y="388"/>
      <point x="364" y="388" type="curve" smooth="yes"/>
      <point x="408" y="388"/>
      <point x="428" y="368"/>
      <point x="428" y="320" type="curve" smooth="yes"/>
      <point x="428" y="221" type="line" smooth="yes"/>
      <point x="428" y="147"/>
      <point x="428" y="74"/>
    </contour>
  </outline>
</glyph>
<glyph name="uni001E" format="2">
  <advance width="733"/>
  <unicode hex="001E"/>
  <outline>
    <contour>
      <point x="55" y="-232" type="curve" smooth="yes"/>
      <point x="131" y="-232"/>
      <point x="189" y="-198"/>
      <point x="222" y="-150" type="curve" smooth="yes"/>
      <point x="258" y="-98"/>
      <point x="276" y="-35"/>
      <point x="276" y="96" type="curve" smooth="yes"/>
      <point x="276" y="372" type="line"/>
      <point x="276" y="516" type="line"/>
      <point x="212" y="516" type="line"/>
      <point x="8" y="456" type="line"/>
      <point x="8" y="384" type="line"/>
      <point x="72" y="384" type="line"/>
      <point x="72" y="348"/>
      <point x="72" y="312"/>
      <point x="72" y="276" type="curve" smooth="yes"/>
      <point x="72" y="172" type="line" smooth="yes"/>
      <point x="72" y="20"/>
      <point x="97" y="-57"/>
      <point x="97" y="-142" type="curve" smooth="yes"/>
      <point x="97" y="-158"/>
      <point x="97" y="-175"/>
      <point x="97" y="-191" type="curve"/>
      <point x="120" y="-172" type="line"/>
      <point x="40" y="-172" type="line"/>
      <point x="72" y="-188" type="line"/>
      <point x="64" y="-148" type="line" smooth="yes"/>
      <point x="54" y="-97"/>
      <point x="33" y="-68"/>
      <point x="-15" y="-68" type="curve" smooth="yes"/>
      <point x="-56" y="-68"/>
      <point x="-84" y="-97"/>
      <point x="-92" y="-152" type="curve"/>
      <point x="-77" y="-207"/>
      <point x="-30" y="-232"/>
    </contour>
    <contour>
      <point x="371" y="-427" type="curve" smooth="yes"/>
      <point x="421" y="-427"/>
      <point x="461" y="-387"/>
      <point x="461" y="-337" type="curve" smooth="yes"/>
      <point x="461" y="-287"/>
      <point x="421" y="-247"/>
      <point x="371" y="-247" type="curve" smooth="yes"/>
      <point x="321" y="-247"/>
      <point x="281" y="-287"/>
      <point x="281" y="-337" type="curve" smooth="yes"/>
      <point x="281" y="-387"/>
      <point x="321" y="-427"/>
    </contour>
    <contour>
      <point x="613" y="-427" type="curve" smooth="yes"/>
      <point x="663" y="-427"/>
      <point x="703" y="-387"/>
      <point x="703" y="-337" type="curve" smooth="yes"/>
      <point x="703" y="-287"/>
      <point x="663" y="-247"/>
      <point x="613" y="-247" type="curve" smooth="yes"/>
      <point x="563" y="-247"/>
      <point x="523" y="-287"/>
      <point x="523" y="-337" type="curve" smooth="yes"/>
      <point x="523" y="-387"/>
      <point x="563" y="-427"/>
    </contour>
    <contour>
      <point x="172" y="574" type="curve" smooth="yes"/>
      <point x="231" y="574"/>
      <point x="271" y="613"/>
      <point x="271" y="668" type="curve" smooth="yes"/>
      <point x="271" y="723"/>
      <point x="231" y="762"/>
      <point x="172" y="762" type="curve" smooth="yes"/>
      <point x="113" y="762"/>
      <point x="72" y="723"/>
      <point x="72" y="668" type="curve" smooth="yes"/>
      <point x="72" y="613"/>
      <point x="113" y="574"/>
    </contour>
  </outline>
</glyph>
<glyph name="uni001E" format="2">
  <advance width="1111"/>
  <unicode hex="001E"/>
  <outline>
    <contour>
      <point x="234" y="0" type="line"/>
      <point x="550" y="0" type="line"/>
      <point x="550" y="76" type="line"/>
      <point x="450" y="76" type="line"/>
      <point x="342" y="76" type="line"/>
      <point x="234" y="76" type="line"/>
    </contour>
    <contour>
      <point x="100" y="765" type="curve" smooth="yes"/>
      <point x="159" y="765"/>
      <point x="199" y="804"/>
      <point x="199" y="859" type="curve" smooth="yes"/>
      <point x="199" y="914"/>
      <point x="159" y="953"/>
      <point x="100" y="953" type="curve" smooth="yes"/>
      <point x="41" y="953"/>
      <point x="0" y="914"/>
      <point x="0" y="859" type="curve" smooth="yes"/>
      <point x="0" y="804"/>
      <point x="41" y="765"/>
    </contour>
    <contour>
      <point x="294" y="0" type="curve"/>
      <point x="498" y="0" type="line"/>
      <point x="498" y="73"/>
      <point x="498" y="147"/>
      <point x="498" y="220" type="curve" smooth="yes"/>
      <point x="498" y="566" type="line"/>
      <point x="498" y="710" type="line"/>
      <point x="434" y="710" type="line"/>
      <point x="230" y="674" type="line"/>
      <point x="230" y="614" type="line"/>
      <point x="294" y="594" type="line"/>
      <point x="294" y="220" type="line" smooth="yes"/>
      <point x="294" y="147"/>
      <point x="294" y="73"/>
    </contour>
    <contour>
      <point x="418" y="140" type="line"/>
      <point x="878" y="500" type="line"/>
      <point x="746" y="500" type="line"/>
      <point x="632" y="392" type="line"/>
      <point x="518" y="264" type="line"/>
      <point x="418" y="264" type="line"/>
    </contour>
    <contour>
      <point x="658" y="0" type="line"/>
      <point x="894" y="0" type="line"/>
      <point x="894" y="76" type="line"/>
      <point x="846" y="76" type="line"/>
      <point x="682" y="396" type="line"/>
      <point x="550" y="272" type="line"/>
    </contour>
    <contour>
      <point x="590" y="444" type="line"/>
      <point x="714" y="428" type="line"/>
      <point x="746" y="428" type="line"/>
      <point x="878" y="444" type="line"/>
      <point x="878" y="516" type="line"/>
      <point x="590" y="516" type="line"/>
    </contour>
  </outline>
</glyph>
<glyph name="uni001E" format="2">
  <advance width="1430"/>
  <unicode hex="001E"/>
  <outline>
    <contour>
      <point x="87" y="537" type="curve" smooth="yes"/>
      <point x="137" y="537"/>
      <point x="177" y="577"/>
      <point x="177" y="627" type="curve" smooth="yes"/>
      <point x="177" y="677"/>
      <point x="137" y="717"/>
      <point x="87" y="717" type="curve" smooth="yes"/>
      <point x="37" y="717"/>
      <point x="-3" y="677"/>
      <point x="-3" y="627" type="curve" smooth="yes"/>
      <point x="-3" y="577"/>
      <point x="37" y="537"/>
    </contour>
    <contour>
      <point x="329" y="537" type="curve" smooth="yes"/>
      <point x="379" y="537"/>
      <point x="419" y="577"/>
      <point x="419" y="627" type="curve" smooth="yes"/>
      <point x="419" y="677"/>
      <point x="379" y="717"/>
      <point x="329" y="717" type="curve" smooth="yes"/>
      <point x="279" y="717"/>
      <point x="239" y="677"/>
      <point x="239" y="627" type="curve" smooth="yes"/>
      <point x="239" y="577"/>
      <point x="279" y="537"/>
    </contour>
    <contour>
      <point x="742" y="-16" type="curve" smooth="yes"/>
      <point x="896" y="-16"/>
      <point x="1032" y="73"/>
      <point x="1032" y="260" type="curve" smooth="yes"/>
      <point x="1032" y="447"/>
      <point x="896" y="532"/>
      <point x="742" y="532" type="curve" smooth="yes"/>
      <point x="588" y="532"/>
      <point x="452" y="443"/>
      <point x="452" y="256" type="curve" smooth="yes"/>
      <point x="452" y="69"/>
      <point x="588" y="-16"/>
    </contour>
    <contour>
      <point x="742" y="60" type="curve" smooth="yes"/>
      <point x="692" y="60"/>
      <point x="662" y="109"/>
      <point x="662" y="260" type="curve" smooth="yes"/>
      <point x="662" y="411"/>
      <point x="692" y="456"/>
      <point x="742" y="456" type="curve" smooth="yes"/>
      <point x="792" y="456"/>
      <point x="822" y="407"/>
      <point x="822" y="256" type="curve" smooth="yes"/>
      <point x="822" y="101"/>
      <point x="792" y="60"/>
    </contour>
  </outline>
</glyph>
<glyph name="uni001E" format="2">
  <advance width="1129"/>
  <unicode hex="001E"/>
  <outline>
    <contour>
      <point x="0" y="702" type="line"/>
      <point x="300" y="702" type="line"/>
      <point x="300" y="804" type="line"/>
      <point x="0" y="804" type="line"/>
    </contour>
    <contour>
      <point x="330" y="0" type="line"/>
      <point x="784" y="0" type="line"/>
      <point x="784" y="80" type="line"/>
      <point x="604" y="80" type="line"/>
      <point x="491" y="80" type="line"/>
      <point x="330" y="80" type="line"/>
    </contour>
    <contour>
      <point x="456" y="0" type="curve"/>
      <point x="660" y="0" type="line"/>
      <point x="660" y="95"/>
      <point x="660" y="189"/>
      <point x="660" y="284" type="curve" smooth="yes"/>
      <point x="660" y="368" type="line"/>
      <point x="660" y="628" type="line"/>
      <point x="590" y="628" type="line"/>
      <point x="363" y="556" type="line"/>
      <point x="363" y="476" type="line"/>
      <point x="456" y="488" type="line"/>
      <point x="456" y="284" type="line" smooth="yes"/>
      <point x="456" y="189"/>
      <point x="456" y="95"/>
    </contour>
  </outline>
</glyph>
<glyph name="uni001E" format="2">
  <advance width="1119"/>
  <unicode hex="001E"/>
  <outline>
    <contour>
      <point x="100" y="521" type="curve" smooth="yes"/>
      <point x="159" y="521"/>
      <point x="199" y="560"/>
      <point x="199" y="615" type="curve" smooth="yes"/>
      <point x="199" y="670"/>
      <point x="159" y="709"/>
      <point x="100" y="709" type="curve" smooth="yes"/>
      <point x="41" y="709"/>
      <point x="0" y="670"/>
      <point x="0" y="615" type="curve" smooth="yes"/>
      <point x="0" y="560"/>
      <point x="41" y="521"/>
    </contour>
    <contour>
      <point x="450" y="-16" type="curve" smooth="yes"/>
      <point x="542" y="-16"/>
      <point x="581" y="39"/>
      <point x="622" y="96" type="curve"/>
      <point x="670" y="96" type="line"/>
      <point x="670" y="168" type="line"/>
      <point x="630" y="140"/>
      <point x="598" y="128"/>
      <point x="562" y="128" type="curve" smooth="yes"/>
      <point x="518" y="128"/>
      <point x="498" y="148"/>
      <point x="498" y="196" type="curve" smooth="yes"/>
      <point x="498" y="372" type="line"/>
      <point x="498" y="516" type="line"/>
      <point x="434" y="516" type="line"/>
      <point x="230" y="486" type="line"/>
      <point x="230" y="422" type="line"/>
      <point x="342" y="392" type="line"/>
      <point x="298" y="448" type="line"/>
      <point x="294" y="160" type="line" smooth="yes"/>
      <point x="292" y="44"/>
      <point x="350" y="-16"/>
    </contour>
    <contour>
      <point x="670" y="-12" type="line"/>
      <point x="906" y="0" type="line"/>
      <point x="906" y="68" type="line"/>
      <point x="842" y="84" type="line"/>
      <point x="842" y="372" type="line"/>
      <point x="842" y="516" type="line"/>
      <point x="778" y="516" type="line"/>
      <point x="574" y="486" type="line"/>
      <point x="574" y="422" type="line"/>
      <point x="638" y="404" type="line"/>
      <point x="638" y="104" type="line"/>
      <point x="654" y="104" type="line"/>
    </contour>
  </outline>
</glyph>
<glyph name="uni001E" format="2">
  <advance width="1500"/>
  <unicode hex="001E"/>
  <outline>
    <contour>
      <point x="127" y="585" type="curve" smooth="yes"/>
      <point x="93" y="585"/>
      <point x="67" y="609"/>
      <point x="67" y="643" type="curve" smooth="yes"/>
      <point x="67" y="677"/>
      <point x="93" y="701"/>
      <point x="127" y="701" type="curve" smooth="yes"/>
      <point x="161" y="701"/>
      <point x="187" y="677"/>
      <point x="187" y="643" type="curve" smooth="yes"/>
      <point x="187" y="609"/>
      <point x="161" y="585"/>
    </contour>
    <contour>
      <point x="127" y="521" type="curve" smooth="yes"/>
      <point x="203" y="521"/>
      <point x="259" y="573"/>
      <point x="259" y="643" type="curve" smooth="yes"/>
      <point x="259" y="713"/>
      <point x="203" y="765"/>
      <point x="127" y="765" type="curve" smooth="yes"/>
      <point x="51" y="765"/>
      <point x="-5" y="713"/>
      <point x="-5" y="643" type="curve" smooth="yes"/>
      <point x="-5" y="573"/>
      <point x="51" y="521"/>
    </contour>
    <contour>
      <point x="514" y="0" type="line"/>
      <point x="678" y="0" type="line"/>
      <point x="757" y="255" type="line"/>
      <point x="766" y="392" type="line"/>
      <point x="784" y="392" type="line"/>
      <point x="887" y="0" type="line"/>
      <point x="1038" y="0" type="line"/>
      <point x="1220" y="516" type="line"/>
      <point x="1120" y="516" type="line"/>
      <point x="1070" y="304" type="line"/>
      <point x="1051" y="116" type="line"/>
      <point x="1029" y="116" type="line"/>
      <point x="916" y="516" type="line"/>
      <point x="762" y="516" type="line"/>
      <point x="690" y="280" type="line"/>
      <point x="680" y="116" type="line"/>
      <point x="658" y="116" type="line"/>
      <point x="560" y="516" type="line"/>
      <point x="338" y="516" type="line"/>
    </contour>
    <contour>
      <point x="314" y="444" type="line"/>
      <point x="418" y="428" type="line"/>
      <point x="538" y="428" type="line"/>
      <point x="638" y="444" type="line"/>
      <point x="638" y="516" type="line"/>
      <point x="314" y="516" type="line"/>
    </contour>
    <contour>
      <point x="682" y="444" type="line"/>
      <point x="798" y="432" type="line"/>
      <point x="908" y="432" type="line"/>
      <point x="996" y="444" type="line"/>
      <point x="996" y="516" type="line"/>
      <point x="682" y="516" type="line"/>
    </contour>
    <contour>
      <point x="1040" y="444" type="line"/>
      <point x="1128" y="428" type="line"/>
      <point x="1156" y="428" type="line"/>
      <point x="1240" y="444" type="line"/>
      <point x="1240" y="516" type="line"/>
      <point x="1040" y="516" type="line"/>
    </contour>
  </outline>
</glyph>
<glyph name="uni001E" format="2">
  <advance width="1498"/>
  <unicode hex="001E"/>
  <outline>
    <contour>
      <point x="613" y="-232" type="curve" smooth="yes"/>
      <point x="748" y="-232"/>
      <point x="826" y="-140"/>
      <point x="873" y="-12" type="curve" smooth="yes"/>
      <point x="1065" y="516" type="line"/>
      <point x="965" y="516" type="line"/>
      <point x="909" y="308" type="line"/>
      <point x="859" y="42" type="line"/>
      <point x="829" y="42" type="line"/>
      <point x="805" y="-16" type="line" smooth="yes"/>
      <point x="777" y="-84"/>
      <point x="715" y="-140"/>
      <point x="687" y="-168" type="curve"/>
      <point x="631" y="-168" type="line"/>
      <point x="667" y="-188" type="line"/>
      <point x="653" y="-140" type="line" smooth="yes"/>
      <point x="642" y="-103"/>
      <point x="613" y="-67"/>
      <point x="566" y="-67" type="curve" smooth="yes"/>
      <point x="510" y="-67"/>
      <point x="488" y="-99"/>
      <point x="477" y="-152" type="curve"/>
      <point x="490" y="-201"/>
      <point x="531" y="-232"/>
    </contour>
    <contour>
      <point x="752" y="-146" type="line"/>
      <point x="886" y="83" type="line"/>
      <point x="835" y="82" type="line"/>
      <point x="729" y="516" type="line"/>
      <point x="483" y="516" type="line"/>
    </contour>
    <contour>
      <point x="79" y="521" type="curve" smooth="yes"/>
      <point x="129" y="521"/>
      <point x="169" y="561"/>
      <point x="169" y="611" type="curve" smooth="yes"/>
      <point x="169" y="661"/>
      <point x="129" y="701"/>
      <point x="79" y="701" type="curve" smooth="yes"/>
      <point x="29" y="701"/>
      <point x="-11" y="661"/>
      <point x="-11" y="611" type="curve" smooth="yes"/>
      <point x="-11" y="561"/>
      <point x="29" y="521"/>
    </contour>
    <contour>
      <point x="321" y="521" type="curve" smooth="yes"/>
      <point x="371" y="521"/>
      <point x="411" y="561"/>
      <point x="411" y="611" type="curve" smooth="yes"/>
      <point x="411" y="661"/>
      <point x="371" y="701"/>
      <point x="321" y="701" type="curve" smooth="yes"/>
      <point x="271" y="701"/>
      <point x="231" y="661"/>
      <point x="231" y="611" type="curve" smooth="yes"/>
      <point x="231" y="561"/>
      <point x="271" y="521"/>
    </contour>
    <contour>
      <point x="455" y="444" type="line"/>
      <point x="555" y="428" type="line"/>
      <point x="725" y="428" type="line"/>
      <point x="821" y="444" type="line"/>
      <point x="821" y="516" type="line"/>
      <point x="455" y="516" type="line"/>
    </contour>
    <contour>
      <point x="873" y="444" type="line"/>
      <point x="969" y="428" type="line"/>
      <point x="989" y="428" type="line"/>
      <point x="1089" y="444" type="line"/>
      <point x="1089" y="516" type="line"/>
      <point x="873" y="516" type="line"/>
    </contour>
  </outline>
</glyph>
<glyph name="uni001E" format="2">
  <advance width="762"/>
  <unicode hex="001E"/>
  <outline>
    <contour>
      <point x="633" y="-203" type="curve" smooth="yes"/>
      <point x="692" y="-203"/>
      <point x="732" y="-164"/>
      <point x="732" y="-109" type="curve" smooth="yes"/>
      <point x="732" y="-54"/>
      <point x="692" y="-15"/>
      <point x="633" y="-15" type="curve" smooth="yes"/>
      <point x="574" y="-15"/>
      <point x="533" y="-54"/>
      <point x="533" y="-109" type="curve" smooth="yes"/>
      <point x="533" y="-164"/>
      <point x="574" y="-203"/>
    </contour>
    <contour>
      <point x="24" y="0" type="line"/>
      <point x="520" y="0" type="line"/>
      <point x="528" y="180" type="line"/>
      <point x="440" y="180" type="line"/>
      <point x="400" y="20" type="line"/>
      <point x="428" y="70" type="line"/>
      <point x="331" y="70" type="line"/>
      <point x="239" y="50" type="line"/>
      <point x="239" y="75" type="line"/>
      <point x="233" y="57" type="line"/>
      <point x="520" y="448" type="line"/>
      <point x="520" y="516" type="line"/>
      <point x="44" y="516" type="line"/>
      <point x="36" y="344" type="line"/>
      <point x="124" y="344" type="line"/>
      <point x="164" y="496" type="line"/>
      <point x="136" y="446" type="line"/>
      <point x="222" y="446" type="line"/>
      <point x="304" y="466" type="line"/>
      <point x="304" y="441" type="line"/>
      <point x="310" y="459" type="line"/>
      <point x="24" y="68" type="line"/>
    </contour>
  </outline>
</glyph>
